<svg width="150" height="200" viewBox="0 0 150 200" fill="none" xmlns="http://www.w3.org/2000/svg">
<g id="up-arrow" clip-path="url(#clip0_102_5)">
<g id="Group">
<path id="Vector" d="M76.8583 1.09936V0.978347C76.7258 0.797679 76.5648 0.635755 76.374 0.489173C76.0548 0.243736 75.6908 0.0818168 75.2823 0C75.1281 0.0102263 74.9265 0.0102263 74.6762 0C74.3272 0.103969 74.0039 0.265889 73.7062 0.489173H73.5858C73.4627 0.656206 73.3423 0.819831 73.2219 0.978347L73.1001 1.09936L0.49238 98.7157C0.121704 99.2083 -0.0393008 99.7367 0.00807693 100.303C0.146068 100.972 0.469383 101.502 0.97672 101.891C1.46511 102.266 1.99136 102.389 2.5528 102.258H48.4933V197.797C48.5366 198.417 48.7787 198.947 49.2198 199.385C49.654 199.83 50.1803 200.033 50.7958 199.996H99.2818C99.8974 200.033 100.424 199.83 100.858 199.385C101.299 198.947 101.501 198.417 101.464 197.797V102.258H147.404C148.047 102.389 148.614 102.266 149.102 101.891C149.61 101.502 149.892 100.972 149.95 100.303C150.079 99.7367 149.957 99.2083 149.587 98.7157L76.8576 1.09936H76.8583ZM99.2823 97.7383C98.6668 97.7827 98.1405 98.0264 97.7063 98.4713C97.2653 98.9093 97.0231 99.4394 96.9798 100.06V195.477H52.9787V100.06C53.0153 99.4394 52.8137 98.9093 52.3727 98.4713C51.9384 98.0264 51.4122 97.7827 50.7966 97.7383H6.79556L75.0396 6.10846L143.284 97.7383H99.2823Z" fill="black"/>
</g>
</g>
<defs>
<clipPath id="clip0_102_5">
<rect width="150" height="200" fill="white"/>
</clipPath>
</defs>
</svg>
