<svg width="150" height="200" viewBox="0 0 150 200" fill="none" xmlns="http://www.w3.org/2000/svg">
    <g id="down-arrow" clip-path="url(#clip0_105_8)">
        <g id="Group">
            <path 
                id="Vector" 
                d="M73.1417 198.901V199.022C73.2742 199.202 73.4352 199.364 73.626 199.511C73.9452 199.756 74.3092 199.918 74.7177 200C74.8719 199.99 75.0735 199.99 75.3238 200C75.6728 199.896 75.9961 199.734 76.2938 199.511H76.4142C76.5373 199.344 76.6577 199.18 76.7781 199.022L76.8999 198.901L149.508 101.284C149.878 100.792 150.039 100.263 149.992 99.6975C149.854 99.0276 149.531 98.4975 149.023 98.1089C148.535 97.734 148.009 97.6113 147.447 97.7425H101.507L101.507 2.20304C101.463 1.58262 101.221 1.05258 100.78 0.614543C100.346 0.169701 99.8197 -0.0331396 99.2042 0.00438502H50.7182C50.1026 -0.0331126 49.5764 0.169706 49.1421 0.614543C48.7011 1.05258 48.4995 1.58266 48.536 2.20304L48.536 97.7425H2.59555C1.95294 97.6113 1.38611 97.734 0.89775 98.1089C0.390448 98.4975 0.107699 99.0276 0.0495161 99.6975C-0.0790029 100.263 0.0427455 100.792 0.413432 101.284L73.1424 198.901H73.1417ZM50.7177 102.262C51.3332 102.217 51.8595 101.974 52.2937 101.529C52.7347 101.091 52.9769 100.561 53.0202 99.9402L53.0202 4.52298H97.0213L97.0213 99.9402C96.9847 100.561 97.1863 101.091 97.6273 101.529C98.0616 101.974 98.5878 102.217 99.2034 102.262H143.204L74.9604 193.892L6.71638 102.262H50.7177Z" 
                fill="black"
            />
        </g>
    </g>
    <defs>
        <clipPath id="clip0_105_8">
            <rect width="150" height="200" fill="white" transform="translate(150 200) rotate(-180)"/>
        </clipPath>
    </defs>
</svg>
